<?xml version="1.0" standalone="no"?>
<!DOCTYPE svg PUBLIC "-//W3C//DTD SVG 20010904//EN"
 "http://www.w3.org/TR/2001/REC-SVG-20010904/DTD/svg10.dtd">
<svg version="1.0" xmlns="http://www.w3.org/2000/svg"
 width="225.000000pt" height="225.000000pt" viewBox="0 0 225.000000 225.000000"
 preserveAspectRatio="xMidYMid meet">

<g transform="translate(0.000000,225.000000) scale(0.100000,-0.100000)"
fill="#000000" stroke="none">
<path d="M645 2214 c-281 -41 -500 -208 -594 -453 -75 -198 -65 -398 31 -591
34 -67 61 -103 128 -170 125 -125 240 -184 410 -211 245 -38 520 76 668 276
99 135 143 266 144 430 0 118 -19 208 -66 308 -112 241 -339 393 -612 410 -43
3 -92 3 -109 1z m247 -217 c132 -48 240 -142 299 -262 178 -363 -100 -785
-501 -762 -284 16 -500 245 -500 530 0 133 50 255 146 357 145 154 363 207
556 137z"/>
<path d="M1375 1060 c-32 -12 -155 -146 -155 -168 0 -14 36 -51 108 -110 119
-100 242 -224 536 -539 109 -117 203 -213 208 -213 17 0 178 162 178 179 0 9
-71 81 -157 161 -258 238 -511 489 -596 590 -90 107 -94 111 -122 100z"/>
</g>
</svg>
